<svg xmlns="http://www.w3.org/2000/svg" xmlns:xlink="http://www.w3.org/1999/xlink" version="1.1" id="Layer_1" x="0px" y="0px" width="1000px" height="265.39px" viewBox="0 0 1000 265.39" enable-background="new 0 0 1000 265.39" xml:space="preserve">
<g>
	<path fill="#000000" d="M292.903,35.75c0-18.895,10.124-29.585,29.343-29.585c4.95,0,12.387,1.03,18.106,5.517   c7.437,5.861,8.326,15.965,8.548,22.593h-18.106c-0.101-4.041-0.323-13.034-9.336-13.034c-2.224,0-5.053,0.909-6.852,2.586   c-2.909,2.688-3.031,6.75-3.031,8.993v31.384c0,4.485,0,13.135,10.004,13.135c7.416,0,9.68-6.063,9.68-14.935h18.208   c-0.102,5.962-0.242,6.608-0.788,10.104c-0.667,3.254-1.799,9.215-8.649,14.732c-5.86,4.729-14.409,5.517-18.006,5.517   c-9.539,0-16.188-2.264-21.36-7.315c-3.375-3.253-7.76-7.983-7.76-24.836V35.75z"/>
	<path fill="#000000" d="M398.311,90.515h-17.864V7.983h26.635c13.378,0,30.374,1.778,30.374,23.947   c0,10.448-4.163,18.431-15.764,21.926l18.006,36.659h-19.683l-15.621-33.748h-6.083V90.515z M398.311,43.611   c10.226,0,11.802,0,14.409-0.91c5.739-2.001,6.163-6.507,6.163-11.013c0-5.72-1.799-8.548-5.375-9.883   c-2.81-1.01-5.072-1.01-15.197-1.01V43.611z"/>
	<polygon fill="#000000" points="469.303,7.983 524.735,7.983 524.735,23.038 487.309,23.038 487.309,40.579 513.055,40.579    513.055,55.655 487.511,55.655 487.511,75.096 527.322,75.096 527.322,90.494 469.303,90.494  "/>
	<path fill="#000000" d="M599.305,7.962l23.846,82.552h-17.662l-4.143-16.43h-25.321l-4.264,16.43h-17.642l23.28-82.552H599.305z    M588.635,22.694h-0.465l-8.973,37.346h18.53L588.635,22.694z"/>
	<polygon fill="#000000" points="699.074,7.983 699.074,23.038 678.521,23.038 678.521,90.494 659.627,90.494 659.627,23.038    638.59,23.038 638.59,7.983  "/>
	<polygon fill="#000000" points="724.416,90.494 724.416,83.199 734.075,83.199 734.075,15.157 724.416,15.157 724.416,7.983    762.064,7.983 762.064,15.157 752.284,15.157 752.284,82.977 762.064,82.977 762.064,90.494  "/>
	<path fill="#000000" d="M811.858,90.494L786.678,7.983h18.107l12.813,44.398c1.898,6.75,3.253,11.479,3.92,14.065h0.466   c1.232-4.952,2.586-9.902,3.92-14.854l12.246-43.61h18.006l-24.613,82.511H811.858z"/>
	<polygon fill="#000000" points="884.145,7.983 939.576,7.983 939.576,23.038 902.109,23.038 902.109,40.579 927.876,40.579    927.876,55.655 902.352,55.655 902.352,75.096 942.163,75.096 942.163,90.494 884.145,90.494  "/>
	<path fill="#000000" d="M317.8,118.766l23.846,82.521h-17.662l-4.163-16.408H294.52l-4.264,16.408h-17.643l23.28-82.521H317.8z    M307.13,133.498h-0.465l-8.973,37.316h18.531L307.13,133.498z"/>
	<path fill="#000000" d="M408.092,140.914c-2.587-4.949-7.861-9.214-14.287-9.214c-9.458,0-9.66,7.093-9.66,7.984   c0,5.838,5.375,8.203,10.447,10.002l10.448,3.82c4.951,1.828,10.812,5.182,14.065,9.67c1.01,1.332,4.607,6.748,4.607,14.508   c0,3.719,0,14.754-11.701,21.826c-4.81,2.91-11.681,4.164-15.844,4.164c-14.509,0-23.058-3.477-30.474-16.775l14.064-9.334   c3.012,6.99,8.549,11.275,15.621,11.275c3.941,0,11.034-1.818,11.034-9.336c0-6.184-3.374-7.559-15.763-12.408   c-12.469-4.811-23.28-10.348-23.28-26.645c0-13.581,9.902-23.382,26.898-23.382c12.145,0,20.692,4.951,27.422,14.853   L408.092,140.914z"/>
	<path fill="#000000" d="M492.745,140.914c-2.587-4.949-7.861-9.214-14.267-9.214c-9.458,0-9.681,7.093-9.681,7.984   c0,5.838,5.396,8.203,10.469,10.002l10.447,3.82c4.951,1.828,10.791,5.182,14.065,9.67c0.99,1.332,4.607,6.748,4.607,14.508   c0,3.719,0,14.754-11.701,21.826c-4.85,2.91-11.7,4.164-15.844,4.164c-14.509,0-23.058-3.477-30.494-16.775l14.065-9.334   c3.031,6.99,8.527,11.275,15.641,11.275c3.921,0,10.994-1.818,10.994-9.336c0-6.184-3.354-7.559-15.723-12.408   c-12.489-4.811-23.28-10.348-23.28-26.645c0-13.581,9.902-23.382,26.878-23.382c12.125,0,20.673,4.951,27.442,14.853   L492.745,140.914z"/>
	<polygon fill="#000000" points="537.567,118.766 593,118.766 593,133.841 555.553,133.841 555.553,151.382 581.299,151.382    581.299,166.449 555.776,166.449 555.776,185.888 595.586,185.888 595.586,201.287 537.567,201.287  "/>
	<path fill="#000000" d="M626.223,118.766h24.291l9.781,34.396c1.01,3.707,1.454,4.961,2.343,8.68   c0.465,1.656,2.163,8.852,2.486,10.346h0.565c1.233-6.871,2.486-12.045,4.486-19.35l9.681-34.071h24.411v82.521h-15.863v-44.418   c0-5.83,0.465-15.631,0.788-23.492h-0.444l-17.096,67.91h-12.49l-17.541-67.91h-0.565c0.142,3.82,0.788,20.582,0.788,24.058v43.852   h-15.621V118.766z"/>
	<path fill="#000000" d="M737.834,118.766h27.2c7.073,0,13.944,0.444,18.674,3.375c6.063,3.718,8.871,10.669,8.871,17.542   c0,10.002-4.951,16.418-11.337,17.873v0.566c5.497,0.768,13.135,6.75,13.135,18.875c0,6.063-0.889,12.287-6.404,17.783   c-5.942,6.063-13.035,6.506-23.483,6.506h-26.655V118.766z M755.477,152.394c14.51,0,19.218-0.465,19.218-10.914   c0-10.003-7.294-10.003-10.993-10.003h-8.225V152.394z M755.477,188.234h9.013c7.194,0,11.682-3.355,11.682-11.762   c0-3.961-1.012-8.568-5.275-10.348c-2.586-1.01-8.993-1.01-15.419-1.01V188.234z"/>
	<polygon fill="#000000" points="824.104,118.766 842.535,118.766 842.535,185.888 878.85,185.888 878.85,201.287 824.104,201.287     "/>
	<path fill="#000000" d="M917.266,201.287v-32.615l-26.089-49.905h19.44l10.469,20.571c0.788,1.576,4.041,8.65,4.729,10.125h0.546   c1.576-3.477,1.919-4.061,4.729-9.902l10.003-20.794h19.238l-24.856,49.259v33.262H917.266z"/>
	<path fill="#000000" d="M71.315,233.5c-28.958-15.277-43.084-14.389-49.935-10.184L3.981,254.314l56.928,0.445l11.882-20.492   C72.307,233.986,71.821,233.742,71.315,233.5"/>
	<path fill="#000000" d="M225.083,213.21c6.325-5.617,12.104-11.801,17.137-18.512l-31.788-39.043   c-1.556,2.951-3.334,5.781-5.294,8.568c-0.203,0.244-0.344,0.525-0.546,0.77c-13.075,18.834-35.264,28.412-47.025,31.525   c-3.9,1.01-7.68,1.697-7.68,1.697c0.081-0.041,0.142-0.08,0.223-0.08c-5.477,1.01-11.176,1.576-16.996,1.576   c-12.913,0-25.159-2.588-36.132-7.195l29.08-50.188l30.07,53.34c22.451-10.387,31.424-29.625,34.98-42.973L132.346,47.955   c0.263,0,0.505-0.02,0.768-0.02c24.008,0,45.732,8.912,61.232,23.199V13.884C176.017,5.032,155.202,0,133.113,0   C59.595,0,0,55.433,0,123.818c0,30.051,11.539,57.545,30.677,78.965c6.446,6.305,17.985,15.277,27.079,21.703   c9.761,6.953,12.408,8.205,16.288,10.227c9.923,4.607,20.512,8.125,31.688,10.266l21.239,20.412l19.622-18.471   c11.924-1.092,23.401-3.639,34.213-7.479l8.367,14.873h58.968L225.083,213.21z M57.574,158.81   c-6.163-10.479-9.66-22.381-9.66-34.992c0-37.628,30.92-68.931,71.296-74.852L57.574,158.81z"/>
	<path fill="#000000" d="M980.579,120.726h-4.688v12.934h-2.466v-12.934h-4.648v-2h11.802V120.726z M1000,133.66h-2.466v-12.469   h-0.06l-4.892,12.469h-1.557l-4.889-12.469h-0.062v12.469h-2.465v-14.934h3.818l4.427,11.357l4.385-11.357H1000V133.66z"/>
	<path fill="#000000" d="M277.262,247.607c0,0,171.53-11.924,342.191-12.289c170.66-0.363,343.929,12.289,343.929,12.289   s-171.389,16.166-343.849,15.316C447.033,262.035,277.262,247.607,277.262,247.607"/>
</g>
</svg>