<?xml version="1.0" encoding="UTF-8" standalone="no"?>
<!-- Created with Inkscape (http://www.inkscape.org/) -->

<svg
   width="338.68356mm"
   height="123.19706mm"
   viewBox="0 0 338.68355 123.19706"
   version="1.1"
   id="svg5"
   xml:space="preserve"
   xmlns="http://www.w3.org/2000/svg"
   xmlns:svg="http://www.w3.org/2000/svg"><defs
     id="defs2"><style
   id="style3233">.cls-1{fill:#fff}</style>
    
    
  
      <linearGradient
   id="a"
   x1="1140.1382"
   x2="1180.1378"
   y1="3.2748001"
   y2="3.2748001"
   gradientTransform="matrix(3.0799265,0,0,3.0799265,-4459.5423,418.68217)"
   gradientUnits="userSpaceOnUse">
        <stop
   offset="0"
   stop-color="#e7380d"
   id="stop5817" />
        <stop
   offset=".02"
   stop-color="#e7380d"
   id="stop5819" />
        <stop
   offset=".07511782"
   stop-color="#e8410c"
   id="stop5821" />
        <stop
   offset=".1651"
   stop-color="#ec590a"
   id="stop5823" />
        <stop
   offset=".2786"
   stop-color="#f18107"
   id="stop5825" />
        <stop
   offset=".41"
   stop-color="#f9b703"
   id="stop5827" />
        <stop
   offset=".5"
   stop-color="#ffe100"
   id="stop5829" />
        <stop
   offset=".59"
   stop-color="#f9b703"
   id="stop5831" />
        <stop
   offset=".7214"
   stop-color="#f18107"
   id="stop5833" />
        <stop
   offset=".8349"
   stop-color="#ec590a"
   id="stop5835" />
        <stop
   offset=".9249"
   stop-color="#e8410c"
   id="stop5837" />
        <stop
   offset=".98"
   stop-color="#e7380d"
   id="stop5839" />
        <stop
   offset="1"
   stop-color="#e7380d"
   id="stop5841" />
      </linearGradient>
      
      <linearGradient
   id="b"
   x1="1163.9911"
   x2="1153.3107"
   y1="-3.5228"
   y2="-3.5228"
   gradientTransform="matrix(3.0799265,0,0,3.0799265,-4459.5423,418.07142)"
   gradientUnits="userSpaceOnUse">
        <stop
   offset=".2"
   stop-color="#fd0"
   id="stop5846" />
        <stop
   offset=".2824"
   stop-color="#fdca02"
   id="stop5848" />
        <stop
   offset=".4488"
   stop-color="#f79a05"
   id="stop5850" />
        <stop
   offset=".6813"
   stop-color="#ee4e0c"
   id="stop5852" />
        <stop
   offset=".9"
   stop-color="#e50012"
   id="stop5854" />
      </linearGradient>
      
      <linearGradient
   id="c"
   x1="-5195.939"
   x2="-5206.6196"
   y1="-6982.6733"
   y2="-6982.6733"
   gradientTransform="matrix(-3.0799265,0,0,-3.0799265,-16901.423,-21055.794)"
   gradientUnits="userSpaceOnUse">
        <stop
   offset=".2"
   stop-color="#fd0"
   id="stop5859" />
        <stop
   offset=".2824"
   stop-color="#fdca02"
   id="stop5861" />
        <stop
   offset=".4488"
   stop-color="#f79a05"
   id="stop5863" />
        <stop
   offset=".6813"
   stop-color="#ee4e0c"
   id="stop5865" />
        <stop
   offset=".9"
   stop-color="#e50012"
   id="stop5867" />
      </linearGradient>
      
    
      
      
    
        
      </defs><g
     id="layer1"
     transform="translate(948.0004,-367.16978)"><path
   id="path6439"
   style="fill:#002b69;stroke-width:3.07993"
   d="m -644.17347,453.83167 c -1.12104,0 -2.12302,0.20387 -3.02359,0.5948 -0.90013,0.39066 -1.66451,0.95109 -2.29288,1.6645 -0.64534,0.69642 -1.12166,1.54591 -1.46089,2.53111 -0.33993,0.96824 -0.50953,2.03804 -0.50953,3.19309 0,1.15508 0.17005,2.20836 0.52658,3.17655 0.3566,0.96824 0.88301,1.80064 1.57923,2.51405 0.69662,0.69642 1.56295,1.23997 2.58227,1.63091 1.01927,0.3906 2.17444,0.59428 3.48248,0.59428 1.7494,0 3.27834,-0.22044 4.60334,-0.69608 l -0.44184,-2.44636 c -0.57748,0.2208 -1.206,0.37418 -1.88567,0.47594 -0.67924,0.10221 -1.34217,0.17001 -1.98748,0.17001 -1.47804,0 -2.68398,-0.3912 -3.63543,-1.17254 -0.93402,-0.78137 -1.46139,-1.88516 -1.59629,-3.32899 l 10.6686,-5.2e-4 v -1.40973 c 0,-1.13809 -0.13927,-2.15706 -0.40876,-3.09128 -0.28872,-0.93428 -0.69622,-1.71565 -1.25677,-2.3611 -0.56051,-0.6455 -1.25741,-1.15548 -2.07274,-1.51205 -0.81535,-0.33959 -1.76612,-0.52659 -2.87063,-0.52659 z m 0,2.3611 v 5.2e-4 c 1.10451,0 1.97056,0.37343 2.61586,1.12086 0.64779,0.73042 0.93431,1.71582 0.93431,2.93884 v 0.0677 h -7.60987 c 0.15261,-1.23998 0.56058,-2.22505 1.25677,-2.98948 0.71358,-0.74755 1.64795,-1.13843 2.80293,-1.13843 z" /><path
   id="path6427"
   style="fill:#002b69;stroke-width:3.07993"
   d="m -712.61167,453.83167 c -0.79839,0 -1.66432,0.10187 -2.5988,0.28887 -0.95103,0.18668 -1.68156,0.39096 -2.20814,0.61185 l 0.67903,2.44585 c 0.64573,-0.27192 1.32495,-0.47578 2.02158,-0.62839 0.71361,-0.13613 1.32506,-0.20412 1.86862,-0.20412 1.2228,0 2.1066,0.2718 2.68408,0.7984 0.57923,0.54356 0.86609,1.32485 0.86609,2.34405 l 10e-4,0.33951 c -1.2911,0 -2.53067,0.0684 -3.68608,0.20412 -1.15496,0.13589 -2.19154,0.39076 -3.07475,0.7643 -0.90014,0.37371 -1.61373,0.90034 -2.12339,1.5968 -0.5247,0.67946 -0.78134,1.57989 -0.78134,2.66702 0,0.84931 0.15449,1.5795 0.45888,2.17403 0.30568,0.59453 0.71335,1.0703 1.20561,1.44384 0.50964,0.37371 1.07033,0.64543 1.69912,0.81545 0.62834,0.15306 1.25656,0.23771 1.91927,0.23771 1.12105,0 2.07213,-0.22039 2.85357,-0.67903 0.79839,-0.44167 1.37546,-1.01929 1.76682,-1.73271 h 0.0698 c 0.0344,0.3397 0.0822,0.71322 0.13436,1.08676 0.0696,0.39067 0.12184,0.71366 0.20464,0.98547 h 2.92178 c -0.10435,-0.4926 -0.16114,-1.07012 -0.20464,-1.69861 -0.0261,-0.64549 -0.0692,-1.22325 -0.0692,-1.76681 v -6.43785 c 0,-1.86851 -0.56043,-3.27796 -1.6645,-4.2292 -1.12104,-0.95124 -2.76912,-1.42731 -4.94337,-1.42731 z m 2.68408,8.18762 h 0.62942 v 1.17202 c 0,0.54356 -0.0693,1.05304 -0.2217,1.54564 -0.15308,0.49259 -0.39186,0.9344 -0.71365,1.30793 -0.32266,0.39067 -0.73009,0.69636 -1.23972,0.91726 -0.50965,0.23788 -1.10422,0.35657 -1.78387,0.35657 -0.8323,0 -1.47657,-0.22086 -1.90272,-0.6625 -0.42414,-0.42467 -0.62839,-1.00177 -0.62839,-1.73219 0,-0.59453 0.15415,-1.08735 0.47594,-1.46089 0.32267,-0.37371 0.7468,-0.66278 1.29036,-0.88367 0.52659,-0.22078 1.15545,-0.37357 1.86862,-0.45837 0.7136,-0.067 1.46125,-0.1018 2.22571,-0.1018 z" /><path
   id="path6419"
   style="fill:#002b69;stroke-width:3.07993"
   d="m -749.4027,453.83167 c -1.12106,0 -2.12345,0.20387 -3.02359,0.5948 -0.8832,0.39066 -1.64757,0.95108 -2.29288,1.6645 -0.62881,0.69641 -1.12171,1.54592 -1.4609,2.53111 -0.34024,0.96825 -0.50953,2.03804 -0.50953,3.19309 0,1.15508 0.18654,2.20835 0.54312,3.17655 0.35703,0.96824 0.88406,1.80064 1.58027,2.51405 0.67967,0.69641 1.54592,1.23998 2.56522,1.63091 1.01887,0.39061 2.19097,0.59428 3.49901,0.59428 1.73245,0 3.26121,-0.22096 4.58576,-0.6966 l -0.42581,-2.44584 c -0.57749,0.22081 -1.20644,0.37418 -1.88567,0.47594 -0.69663,0.10222 -1.35915,0.17001 -1.98748,0.17001 -1.47809,0 -2.70044,-0.3912 -3.63492,-1.17254 -0.95104,-0.78137 -1.47958,-1.88515 -1.5968,-3.32899 l 10.67067,-5.2e-4 v -1.40973 c 0,-1.1381 -0.15672,-2.15705 -0.42633,-3.09128 -0.28874,-0.93427 -0.69581,-1.71565 -1.25678,-2.3611 -0.56053,-0.64549 -1.23991,-1.15547 -2.07222,-1.51205 -0.81533,-0.33955 -1.76704,-0.52659 -2.87114,-0.52659 z m -0.002,2.3611 v 5.2e-4 c 1.1041,0 1.97055,0.37344 2.61586,1.12086 0.64705,0.73042 0.93431,1.71582 0.93431,2.93884 v 0.0677 h -7.59282 c 0.13608,-1.23998 0.5432,-2.22505 1.25677,-2.98948 0.69663,-0.74755 1.63091,-1.13843 2.78588,-1.13843 z" /><path
   id="path6409"
   style="fill:#002b69;stroke-width:3.07993"
   d="m -668.27691,423.49399 c -1.12104,0 -2.12344,0.2043 -3.02358,0.5948 -0.90056,0.39072 -1.66461,0.95103 -2.2934,1.66449 -0.64531,0.69642 -1.12172,1.54587 -1.4609,2.53112 -0.34026,0.96818 -0.50953,2.03803 -0.50953,3.19308 0,1.15509 0.17,2.20832 0.52659,3.17655 0.35657,0.96825 0.88311,1.8006 1.57975,2.51406 0.69617,0.69642 1.56247,1.23998 2.58175,1.63091 1.0193,0.40753 2.17446,0.59428 3.48247,0.59428 1.74943,0 3.27836,-0.22101 4.60334,-0.6966 l -0.44183,-2.44585 c -0.57748,0.22076 -1.18904,0.37364 -1.88568,0.47543 -0.67923,0.10224 -1.34164,0.17001 -1.98695,0.17001 -1.47763,0 -2.68392,-0.39063 -3.63492,-1.17202 -0.93452,-0.78133 -1.46219,-1.88516 -1.59681,-3.32899 l 10.6686,-5.2e-4 v -1.40973 c 0,-1.13809 -0.13914,-2.15701 -0.40876,-3.09129 -0.28873,-0.93423 -0.69675,-1.7156 -1.25728,-2.36109 -0.5605,-0.64546 -1.25739,-1.15549 -2.07275,-1.51206 -0.81534,-0.33962 -1.76604,-0.52658 -2.87011,-0.52658 z m 0,2.3611 c 1.10407,0 1.97004,0.37396 2.61535,1.12138 0.6475,0.73037 0.93483,1.71582 0.93483,2.93883 v 0.0677 h -7.60988 c 0.15262,-1.23998 0.56021,-2.22511 1.27383,-2.98948 0.69617,-0.74716 1.63091,-1.13843 2.78587,-1.13843 z" /><path
   id="path6395"
   style="fill:#002b69;stroke-width:3.07993"
   d="m -732.31589,423.49451 c -0.79839,0 -1.66482,0.10137 -2.61586,0.28835 -0.93448,0.18668 -1.66497,0.39096 -2.1916,0.61185 l 0.66301,2.44585 c 0.6623,-0.27196 1.34191,-0.47532 2.03812,-0.62839 0.71358,-0.13602 1.32506,-0.20412 1.86862,-0.20412 1.20627,0 2.10607,0.27184 2.68355,0.7984 0.5792,0.54357 0.8661,1.32483 0.8661,2.34404 l 0.002,0.34003 c -1.30758,0 -2.53061,0.0679 -3.68556,0.20361 -1.17236,0.13589 -2.19122,0.39075 -3.09181,0.76429 -0.88315,0.37367 -1.59677,0.90039 -2.12338,1.59681 -0.5247,0.67944 -0.78135,1.57989 -0.78135,2.66702 0,0.84929 0.15398,1.5795 0.45837,2.17402 0.32308,0.59449 0.71353,1.07031 1.22318,1.44384 0.4927,0.37367 1.07016,0.64545 1.68155,0.81546 0.62834,0.15307 1.27405,0.23823 1.93632,0.23823 1.1041,0 2.0557,-0.22091 2.85409,-0.67955 0.79839,-0.44165 1.37494,-1.01929 1.7663,-1.73271 h 0.0522 c 0.0522,0.33971 0.0829,0.71373 0.15245,1.08727 0.0522,0.39066 0.11747,0.71315 0.18707,0.98495 h 2.93832 c -0.10471,-0.5096 -0.17001,-1.07006 -0.22221,-1.6986 -0.0521,-0.64544 -0.0522,-1.22274 -0.0522,-1.7663 v -6.43785 c 0,-1.86852 -0.56039,-3.27847 -1.6645,-4.22972 -1.12105,-0.95123 -2.76859,-1.42678 -4.94285,-1.42678 z m 2.68407,8.18709 h 0.62942 v 1.17203 c 0,0.54357 -0.0697,1.05304 -0.22169,1.54564 -0.15306,0.4926 -0.39185,0.9344 -0.71365,1.30793 -0.32265,0.39068 -0.73059,0.69637 -1.24024,0.91726 -0.50965,0.23745 -1.10411,0.35708 -1.78335,0.35708 -0.84928,0 -1.47605,-0.22081 -1.90221,-0.66249 -0.42413,-0.42463 -0.64595,-1.00233 -0.64595,-1.73271 0,-0.59454 0.17068,-1.08737 0.49247,-1.4609 0.30571,-0.35671 0.74776,-0.66226 1.27434,-0.88315 0.54357,-0.22078 1.17211,-0.37408 1.88568,-0.45888 0.71316,-0.067 1.44374,-0.10181 2.22518,-0.10181 z" /><path
   id="path6389"
   style="fill:#002b69;stroke-width:3.07993"
   d="m -757.4048,423.49399 c -1.12106,0 -2.12344,0.2043 -3.02359,0.5948 -0.90059,0.39072 -1.66461,0.95103 -2.2934,1.66449 -0.64532,0.69642 -1.12119,1.54587 -1.46037,2.53112 -0.34026,0.96818 -0.51005,2.03803 -0.51005,3.19308 0,1.15509 0.17052,2.20832 0.5271,3.17655 0.35658,0.96825 0.88311,1.8006 1.57975,2.51406 0.69622,0.69642 1.56288,1.23998 2.58175,1.63091 1.0193,0.40753 2.17392,0.59428 3.48196,0.59428 1.74984,0 3.27833,-0.22101 4.60334,-0.6966 l -0.44184,-2.44585 c -0.57747,0.22076 -1.2055,0.37364 -1.88515,0.47543 -0.67925,0.10224 -1.34175,0.17001 -1.98748,0.17001 -1.47763,0 -2.68388,-0.39063 -3.63492,-1.17202 -0.93448,-0.78133 -1.47958,-1.88516 -1.5968,-3.32899 l 10.6686,-5.2e-4 v -1.40973 c 0,-1.13809 -0.13915,-2.15701 -0.40876,-3.09129 -0.28874,-0.93423 -0.69677,-1.7156 -1.25729,-2.36109 -0.56053,-0.64546 -1.25689,-1.15549 -2.07222,-1.51206 -0.81537,-0.33962 -1.76653,-0.52658 -2.87063,-0.52658 z m 0,2.3611 c 1.1041,0 1.97055,0.37396 2.61586,1.12138 0.64747,0.73037 0.93431,1.71582 0.93431,2.93883 v 0.0677 h -7.60987 c 0.15265,-1.23998 0.56065,-2.22511 1.25729,-2.98948 0.71316,-0.74716 1.64743,-1.13843 2.80241,-1.13843 z" /><path
   id="path6375"
   style="fill:#002b69;stroke-width:3.07993"
   d="m -777.02789,393.15631 c -1.15541,0 -2.17427,0.18716 -3.0918,0.56069 -0.91712,0.35671 -1.6986,0.86619 -2.32699,1.54564 -0.66271,0.67946 -1.1558,1.51176 -1.495,2.497 -0.33976,0.9852 -0.52658,2.0895 -0.52658,3.32952 0,1.24003 0.1874,2.36127 0.52658,3.32951 0.33964,0.9852 0.83229,1.8176 1.495,2.51406 0.62839,0.67945 1.40987,1.22317 2.32699,1.57975 0.91753,0.35658 1.93638,0.54312 3.0918,0.54312 1.13799,0 2.15763,-0.18655 3.07475,-0.54312 0.91708,-0.3567 1.68132,-0.9003 2.34404,-1.57975 0.62838,-0.69646 1.13825,-1.52886 1.47743,-2.51406 0.35723,-0.96824 0.52658,-2.08948 0.52658,-3.32951 0,-1.24002 -0.16999,-2.34432 -0.52658,-3.32952 -0.3396,-0.98524 -0.84905,-1.83408 -1.47743,-2.51354 -0.66271,-0.67945 -1.42695,-1.18958 -2.34404,-1.54616 -0.91712,-0.35658 -1.93676,-0.54363 -3.07475,-0.54363 z m 0.002,2.51457 c 0.71315,0 1.32487,0.13534 1.85105,0.39016 0.50965,0.27178 0.93514,0.64578 1.27434,1.12138 0.33877,0.49259 0.59519,1.07026 0.74724,1.73271 0.17391,0.6455 0.25683,1.37568 0.25683,2.17403 h -0.004 c 0,1.64769 -0.33992,2.9557 -1.01957,3.95789 -0.67925,0.98519 -1.71553,1.49434 -3.10834,1.51154 -1.39285,-0.017 -2.42917,-0.5264 -3.10885,-1.52859 -0.69705,-1.00221 -1.03612,-2.31016 -1.03612,-3.94084 0,-0.79835 0.0874,-1.51157 0.25684,-2.17403 0.15306,-0.64549 0.40856,-1.22307 0.74775,-1.71566 0.33963,-0.47564 0.76427,-0.86662 1.29088,-1.13843 0.50965,-0.25482 1.13796,-0.39016 1.85157,-0.39016 z" /><path
   style="fill:url(#a);stroke-width:3.07993"
   d="m -824.80334,428.76831 -61.59853,-61.59853 -61.59853,61.59853 61.59853,61.59853 z"
   id="path5844" /><path
   style="fill:url(#b);stroke-width:3.07993"
   d="m -883.01395,432.15623 v -49.89481 l -24.94741,24.9474 z"
   id="path5857" /><path
   style="fill:url(#c);stroke-width:3.07993"
   d="m -889.78979,425.38039 v 49.89481 l 24.94741,-24.9474 z"
   id="path5870" /><path
   style="fill:#002b69;stroke-width:3.07993"
   d="M -631.31464,454.18859"
   id="path6443" /><path
   style="fill:#002b69;stroke-width:3.07993"
   d="m -631.31464,454.18859 v 2.12329 h 0.0521 c 0.42614,-0.78138 1.07012,-1.39287 1.90244,-1.83455 0.84929,-0.42442 1.78377,-0.64546 2.81958,-0.64546 1.68198,0 3.04094,0.50956 4.04284,1.49481 1.00233,1.00221 1.49499,2.34411 1.49499,4.04273 v 10.02199 h -3.29527 v -8.78196 c 0,-0.66246 -0.052,-1.25699 -0.1349,-1.80055 -0.10041,-0.5266 -0.2695,-0.9852 -0.52664,-1.34195 -0.25656,-0.37354 -0.57749,-0.64546 -0.98493,-0.83231 -0.39137,-0.20398 -0.91751,-0.28874 -1.54591,-0.28874 -0.47572,0 -0.91751,0.0848 -1.37586,0.25483 -0.42617,0.17001 -0.83229,0.44164 -1.17235,0.79834 -0.35659,0.37354 -0.64533,0.84932 -0.84929,1.42684 -0.22175,0.59453 -0.33916,1.30799 -0.33916,2.1573 v 8.40825 h -3.2953 v -15.2028 z"
   id="path6441" /><path
   style="fill:#002b69;stroke-width:3.07993"
   d="m -673.78051,454.18857 v 2.17426 h 0.0696 c 0.39137,-0.79839 0.98492,-1.42688 1.81723,-1.86851 0.83275,-0.44164 1.71592,-0.66247 2.66696,-0.66247 2.25949,0 3.75405,0.83231 4.50159,2.48001 h 0.0828 c 0.54356,-0.88331 1.2402,-1.51181 2.07251,-1.91948 0.8323,-0.3905 1.73244,-0.57752 2.70084,-0.56053 0.91712,0 1.73245,0.13571 2.42908,0.40747 0.69622,0.2718 1.2737,0.64545 1.71552,1.13809 0.45875,0.4926 0.7984,1.07013 1.0193,1.74958 0.22206,0.66246 0.32176,1.40988 0.32176,2.24218 v 10.02199 h -3.2953 v -8.78196 c 0,-0.76439 -0.0435,-1.39288 -0.10022,-1.85151 -0.0828,-0.45864 -0.23934,-0.88332 -0.45833,-1.25699 -0.22194,-0.39093 -0.52663,-0.67945 -0.93452,-0.86631 -0.37396,-0.20392 -0.88316,-0.28874 -1.47762,-0.28874 -0.40876,0 -0.81534,0.0678 -1.22323,0.22089 -0.39136,0.13567 -0.74707,0.35658 -1.07018,0.64549 -0.28702,0.30572 -0.54357,0.69646 -0.74707,1.18906 -0.18683,0.4926 -0.28702,1.05317 -0.28702,1.71563 v 9.27456 h -3.29571 v -8.95182 c 0,-0.64549 -0.0435,-1.22302 -0.10023,-1.71562 -0.087,-0.5096 -0.2216,-0.95123 -0.4418,-1.30795 -0.22198,-0.35658 -0.50923,-0.61153 -0.91711,-0.79838 -0.39138,-0.18702 -0.88317,-0.27181 -1.47764,-0.27181 -0.44181,0 -0.88361,0.0848 -1.30804,0.25484 -0.42614,0.17001 -0.78141,0.42441 -1.08712,0.76438 -0.32179,0.3396 -0.5605,0.78134 -0.76447,1.35891 -0.20457,0.56052 -0.30439,1.25698 -0.30439,2.07233 v 8.5951 h -3.29531 v -15.2028 z"
   id="path6435" /><path
   style="fill:#002b69;stroke-width:3.07993"
   d="m -690.98803,454.18857 v 2.12329 h 0.0522 c 0.42615,-0.78138 1.05321,-1.39287 1.9025,-1.83455 0.84969,-0.42442 1.78375,-0.64546 2.80305,-0.64546 1.69852,0 3.05742,0.50956 4.04279,1.49481 1.01888,1.00221 1.51155,2.34411 1.51155,4.04273 v 10.02199 h -3.29531 v -8.78196 c 0,-0.66246 -0.0521,-1.25699 -0.13462,-1.80055 -0.10441,-0.5266 -0.26962,-0.9852 -0.52659,-1.34195 -0.25638,-0.37354 -0.57794,-0.64546 -0.98537,-0.83231 -0.40876,-0.20398 -0.93407,-0.28874 -1.56286,-0.28874 -0.45833,0 -0.91712,0.0848 -1.35893,0.25483 -0.44136,0.17001 -0.83231,0.44164 -1.17191,0.79834 -0.35658,0.37354 -0.64531,0.84932 -0.86622,1.42684 -0.22198,0.59453 -0.3218,1.30799 -0.3218,2.1573 v 8.40825 h -3.29575 v -15.2028 z"
   id="path6433" /><path
   style="fill:#002b69;stroke-width:3.07993"
   d="m -698.56228,451.41978 h -3.38008 v -3.05756 h 3.38008 z"
   id="path6431" /><path
   style="fill:#002b69;stroke-width:3.07993"
   d="m -698.63188,469.39138 h -3.29532 v -15.21981 h 3.29532 z"
   id="path6429" /><path
   style="fill:#002b69;stroke-width:3.07993"
   d="m -730.12473,454.18857 h 2.5313 v -3.95785 h 3.31225 v 3.95785 h 3.34619 v 2.49701 h -3.34619 v 7.9496 c 0,0.50961 0,0.93428 0.0522,1.25699 0.0435,0.30571 0.11723,0.56056 0.25638,0.73042 0.13496,0.17001 0.32178,0.28874 0.54355,0.33963 0.23934,0.0678 0.56055,0.10176 0.96799,0.10176 0.28699,0 0.54357,-0.0172 0.78144,-0.0348 0.25672,-0.0172 0.49268,-0.0509 0.71357,-0.0848 v 2.44604 c -0.32178,0.0348 -0.71357,0.0678 -1.15496,0.10176 -0.44181,0.0509 -0.88362,0.0678 -1.32498,0.0678 -0.8832,0 -1.59677,-0.10176 -2.14033,-0.28871 -0.54357,-0.18701 -0.96844,-0.47564 -1.25718,-0.84931 -0.28702,-0.37353 -0.49267,-0.83235 -0.59443,-1.35891 -0.087,-0.5266 -0.15199,-1.13809 -0.15199,-1.81755 v -8.56114 h -2.5313 z"
   id="path6423" /><path
   style="fill:#002b69;stroke-width:3.07993"
   d="m -731.55145,456.44775 c -0.32179,-0.0678 -0.73055,-0.10176 -1.2402,-0.10176 -0.44139,-0.0172 -0.90015,0.0509 -1.37587,0.23786 -0.49225,0.18702 -0.90014,0.4756 -1.2228,0.84931 -0.32179,0.39093 -0.59446,0.90028 -0.78144,1.56277 -0.18714,0.64545 -0.28702,1.40988 -0.28702,2.27614 v 8.11951 h -3.29531 v -15.20281 h 3.21053 v 2.00441 h 0.0522 c 0.69619,-1.57977 2.03813,-2.36111 3.99149,-2.36111 0.15202,0 0.32179,0 0.52662,0.0172 0.18717,0.0172 0.37398,0.0172 0.5779,0.0509 z"
   id="path6421" /><path
   style="fill:#002b69;stroke-width:3.07993"
   d="m -767.86853,454.18855 h 2.54823 v -3.95785 h 3.29531 v 3.95785 h 3.34617 v 2.49701 h -3.34617 v 7.9496 c 0,0.50961 0,0.93428 0.0522,1.25699 0.0435,0.30571 0.11725,0.56056 0.25674,0.73042 0.13463,0.17001 0.32178,0.28874 0.5605,0.33963 0.22197,0.0678 0.54357,0.10176 0.95146,0.10176 0.28699,0 0.54356,-0.0172 0.78099,-0.0348 0.25671,-0.0172 0.49271,-0.0509 0.71361,-0.0848 v 2.44604 c -0.32179,0.0348 -0.71361,0.0678 -1.15497,0.10176 -0.4418,0.0509 -0.8832,0.0678 -1.32501,0.0678 -0.88317,0 -1.59677,-0.10176 -2.14033,-0.28871 -0.54357,-0.18701 -0.96841,-0.47564 -1.25714,-0.84931 -0.30439,-0.37353 -0.49226,-0.83235 -0.59447,-1.35891 -0.0828,-0.5266 -0.13462,-1.13809 -0.13462,-1.81755 v -8.56114 h -2.54823 z"
   id="path6415" /><path
   style="fill:#002b69;stroke-width:3.07993"
   d="m -780.67623,454.18855 v 2.12329 h 0.0522 c 0.42616,-0.78138 1.07019,-1.39287 1.91943,-1.83455 0.84971,-0.42442 1.78377,-0.64546 2.80306,-0.64546 1.69854,0 3.04048,0.50956 4.04283,1.49481 1.00191,1.00221 1.51155,2.34411 1.51155,4.04273 v 10.02199 h -3.29531 v -8.78196 c 0,-0.66246 -0.0522,-1.25699 -0.15236,-1.80055 -0.10441,-0.5266 -0.26962,-0.9852 -0.52663,-1.34195 -0.23934,-0.37354 -0.5779,-0.64546 -0.96839,-0.83231 -0.40876,-0.20398 -0.93407,-0.28874 -1.56286,-0.28874 -0.47531,0 -0.91712,0.0848 -1.35893,0.25483 -0.44136,0.17001 -0.84925,0.44164 -1.18889,0.79834 -0.35657,0.37354 -0.62833,0.84932 -0.84925,1.42684 -0.22194,0.59453 -0.33917,1.30799 -0.33917,2.1573 v 8.40825 h -3.29577 v -15.2028 z"
   id="path6413" /><path
   style="fill:#002b69;stroke-width:3.07993"
   d="m -799.58185,448.82082 h 11.89018 v 2.73484 h -8.51005 v 5.91124 h 7.84775 v 2.76879 h -7.84775 v 6.42088 h 8.76487 v 2.73479 h -12.145 z"
   id="path6411" /><path
   style="fill:#002b69;stroke-width:3.07993"
   d="m -684.0574,436.14904 h 0.0522 l 4.04284,-12.29812 h 3.49923 l -5.70741,15.2028 h -3.85627 l -5.65613,-15.2028 h 3.58404 z"
   id="path6405" /><path
   style="fill:#002b69;stroke-width:3.07993"
   d="m -693.9929,421.08212 h -3.38008 v -3.05757 h 3.38008 z"
   id="path6403" /><path
   style="fill:#002b69;stroke-width:3.07993"
   d="m -694.0625,439.05372 h -3.29531 v -15.2028 h 3.29531 z"
   id="path6401" /><path
   style="fill:#002b69;stroke-width:3.07993"
   d="m -709.58799,423.83391 h 2.54778 v -3.94084 h 3.29531 v 3.94084 h 3.34661 v 2.51396 h -3.34661 v 7.94965 c 0,0.50961 0,0.93424 0.0696,1.25699 0.0435,0.30571 0.11725,0.56056 0.25637,0.73042 0.13462,0.16998 0.30439,0.28872 0.54357,0.33964 0.23934,0.0679 0.56095,0.10179 0.96843,0.10179 0.26961,0 0.54356,-0.0172 0.78141,-0.0347 0.23897,-0.0173 0.47573,-0.0509 0.7136,-0.0848 v 2.44603 c -0.33917,0.0348 -0.7136,0.0679 -1.15542,0.1018 -0.44135,0.0509 -0.88316,0.0678 -1.34194,0.0678 -0.88317,0 -1.59678,-0.1018 -2.12295,-0.28875 -0.54357,-0.18701 -0.9684,-0.47564 -1.25714,-0.84935 -0.30439,-0.37354 -0.49271,-0.83231 -0.59446,-1.35892 -0.10441,-0.52656 -0.152,-1.13809 -0.152,-1.81755 v -8.56114 h -2.54778 z"
   id="path6399" /><path
   style="fill:#002b69;stroke-width:3.07993"
   d="m -711.91532,426.55173 c -0.42615,-0.18698 -0.8832,-0.32266 -1.35893,-0.42485 -0.49266,-0.0848 -0.93405,-0.1187 -1.35889,-0.1187 -0.79838,0 -1.49461,0.1357 -2.08902,0.42485 -0.61186,0.28875 -1.1215,0.67945 -1.52894,1.17206 -0.40876,0.49259 -0.71361,1.07012 -0.91713,1.73258 -0.22194,0.67946 -0.32178,1.39292 -0.32178,2.1403 0,0.74742 0.10441,1.44383 0.32178,2.10633 0.20423,0.64545 0.50923,1.22302 0.91713,1.71562 0.40875,0.5096 0.93406,0.90027 1.56285,1.17206 0.64532,0.28871 1.34195,0.42485 2.10598,0.42485 0.47571,0 0.95144,-0.0509 1.39326,-0.11917 0.44139,-0.0848 0.90014,-0.22089 1.35893,-0.44162 l 0.54356,2.48 c -0.57793,0.22089 -1.15542,0.35657 -1.7329,0.45863 -0.57749,0.0848 -1.17191,0.1187 -1.76637,0.1187 -1.30804,0 -2.463,-0.20392 -3.48229,-0.61149 -1.00232,-0.3905 -1.85161,-0.95124 -2.51386,-1.66465 -0.66272,-0.71346 -1.17236,-1.54577 -1.49502,-2.49701 -0.33919,-0.96824 -0.50965,-2.00441 -0.50965,-3.1425 0,-1.17205 0.18682,-2.24218 0.54357,-3.21043 0.37397,-0.96823 0.90055,-1.80053 1.5798,-2.51396 0.67969,-0.69645 1.52894,-1.24002 2.49692,-1.64769 0.98537,-0.40745 2.10641,-0.61154 3.36359,-0.61154 1.35889,0 2.53084,0.18702 3.51621,0.54357 z"
   id="path6397" /><path
   style="fill:#002b69;stroke-width:3.07993"
   d="m -739.55188,426.12705 c -0.32179,-0.0848 -0.74753,-0.1187 -1.2402,-0.1187 -0.44181,-0.0172 -0.90015,0.0509 -1.37587,0.23789 -0.4927,0.18699 -0.90014,0.4756 -1.22325,0.84931 -0.3218,0.39049 -0.59443,0.90027 -0.781,1.56273 -0.18683,0.64549 -0.28699,1.40987 -0.28699,2.27618 v 8.11951 h -3.29531 v -15.2028 h 3.21053 v 2.00436 h 0.0521 c 0.69663,-1.57973 2.02161,-2.36112 3.99194,-2.36112 0.15203,0 0.32179,0 0.5266,0.0172 0.18683,0.0172 0.37396,0.0172 0.57747,0.0509 z"
   id="path6391" /><path
   style="fill:#002b69;stroke-width:3.07993"
   d="m -775.88593,423.83396 h 2.54781 v -3.94084 h 3.2953 v 3.94084 h 3.34662 v 2.51396 h -3.34662 v 7.94965 c 0,0.50961 0,0.93424 0.0696,1.25699 0.0435,0.30571 0.11725,0.56056 0.25671,0.73042 0.13465,0.16998 0.32179,0.28872 0.54357,0.33964 0.23934,0.0679 0.56051,0.10179 0.96798,0.10179 0.26962,0 0.54357,-0.0172 0.78141,-0.0347 0.239,-0.0173 0.47573,-0.0509 0.71361,-0.0848 v 2.44603 c -0.32179,0.0348 -0.71361,0.0679 -1.15542,0.1018 -0.44136,0.0509 -0.88317,0.0678 -1.34196,0.0678 -0.88316,0 -1.59632,-0.1018 -2.12293,-0.28875 -0.54356,-0.18701 -0.96839,-0.47567 -1.25713,-0.84938 -0.30439,-0.37354 -0.49271,-0.83231 -0.59446,-1.35892 -0.10023,-0.52656 -0.15203,-1.13809 -0.15203,-1.81756 v -8.56113 h -2.54777 z"
   id="path6385" /><path
   style="fill:#002b69;stroke-width:3.07993"
   d="m -788.67666,423.83396 v 2.1403 h 0.0522 c 0.42616,-0.78139 1.07019,-1.39293 1.90249,-1.83456 0.84925,-0.42441 1.78377,-0.64549 2.81958,-0.64549 1.68201,0 3.0409,0.5096 4.0428,1.4948 1.00235,1.00221 1.49502,2.34416 1.49502,4.04278 v 10.02198 h -3.29531 v -8.78196 c 0,-0.6625 -0.0522,-1.25699 -0.13462,-1.80054 -0.10022,-0.52662 -0.26962,-0.98526 -0.52658,-1.34196 -0.25674,-0.37354 -0.57749,-0.6455 -0.98496,-0.83231 -0.39137,-0.20395 -0.91754,-0.28874 -1.56286,-0.28874 -0.45875,0 -0.90056,0.0848 -1.35889,0.25483 -0.44182,0.17002 -0.83231,0.44168 -1.17237,0.79839 -0.35657,0.37354 -0.64531,0.84931 -0.84928,1.42684 -0.2216,0.59452 -0.33918,1.30795 -0.33918,2.15729 v 8.40826 h -3.29531 v -15.21981 z"
   id="path6383" /><path
   style="fill:#002b69;stroke-width:3.07993"
   d="m -799.58188,418.48324 h 3.38013 v 20.57053 h -3.38013 z"
   id="path6381" /><path
   style="fill:#002b69;stroke-width:3.07993"
   d="m -743.30598,404.70727 h 0.0696 l 4.05977,-11.211 h 3.46535 l -8.28959,20.82531 h -3.46532 l 2.463,-5.92824 -5.99618,-14.89707 h 3.60143 z"
   id="path6379" /><path
   style="fill:#002b69;stroke-width:3.07993"
   d="m -763.29914,393.51322 v 2.12329 h 0.0522 c 0.42614,-0.78133 1.07015,-1.39286 1.90245,-1.8345 0.84929,-0.42485 1.78376,-0.6455 2.82003,-0.6455 1.68156,0 3.04049,0.50961 4.02586,1.4948 1.01884,1.00221 1.51155,2.34413 1.51155,4.04278 v 10.02199 h -3.29531 v -8.78197 c 0,-0.6625 -0.0522,-1.25702 -0.13499,-1.80058 -0.10019,-0.52656 -0.26962,-0.9852 -0.52617,-1.34192 -0.25674,-0.37353 -0.57793,-0.64549 -0.98537,-0.83235 -0.40876,-0.20395 -0.91712,-0.28874 -1.56286,-0.28874 -0.45879,0 -0.91712,0.0848 -1.35893,0.25483 -0.44136,0.17001 -0.8323,0.44164 -1.18888,0.79835 -0.33918,0.37353 -0.62879,0.84935 -0.84925,1.42687 -0.22197,0.59453 -0.32179,1.30795 -0.32179,2.15726 v 8.40829 h -3.2953 v -15.20285 z"
   id="path6377" /><path
   style="fill:#002b69;stroke-width:3.07993"
   d="m -788.91452,391.33896 c -0.73054,-0.25482 -1.47807,-0.45863 -2.24209,-0.59452 -0.74752,-0.13568 -1.49501,-0.20397 -2.22556,-0.20397 -0.47531,0 -0.93407,0.0509 -1.39286,0.13568 -0.45833,0.10179 -0.86622,0.25482 -1.20582,0.45864 -0.33918,0.20396 -0.6114,0.47559 -0.81537,0.83231 -0.2216,0.35657 -0.32179,0.76442 -0.32179,1.25702 0,0.3905 0.0696,0.74738 0.2216,1.05312 0.13462,0.30569 0.37398,0.61153 0.69621,0.88332 0.33919,0.28875 0.76447,0.54357 1.27412,0.81535 0.52659,0.2718 1.15496,0.56057 1.91943,0.86631 0.88317,0.33964 1.68156,0.71342 2.41211,1.12109 0.71316,0.39049 1.34195,0.83235 1.85159,1.32496 0.50923,0.49259 0.88321,1.03616 1.15498,1.68165 0.25671,0.62849 0.39136,1.37587 0.39136,2.20822 0,1.0022 -0.20423,1.88547 -0.59442,2.63289 -0.40877,0.74739 -0.95104,1.35891 -1.63069,1.83452 -0.69664,0.47564 -1.49461,0.83234 -2.36125,1.07017 -0.8832,0.22089 -1.78335,0.3396 -2.70089,0.3396 -0.93405,0 -1.93637,-0.0848 -3.04047,-0.2718 -1.08713,-0.18699 -2.14035,-0.47561 -3.14224,-0.88327 l 0.69621,-2.7858 c 0.93448,0.42485 1.88551,0.73043 2.83698,0.91728 0.951,0.18698 1.81722,0.28874 2.58169,0.28874 1.24019,0 2.20818,-0.23783 2.92179,-0.73041 0.71357,-0.4926 1.07014,-1.22303 1.07014,-2.17426 0,-0.44169 -0.0828,-0.84936 -0.28699,-1.20607 -0.18716,-0.3396 -0.47573,-0.67944 -0.84924,-0.9682 -0.37398,-0.30568 -0.84929,-0.59452 -1.41025,-0.8663 -0.57748,-0.28874 -1.22279,-0.56057 -1.95335,-0.84932 -0.86622,-0.3396 -1.63069,-0.71346 -2.29296,-1.10412 -0.67969,-0.3905 -1.2402,-0.83236 -1.69853,-1.30795 -0.45878,-0.49261 -0.81537,-1.01921 -1.07018,-1.61374 -0.25673,-0.59448 -0.37398,-1.25699 -0.37398,-1.9874 0,-0.9682 0.20423,-1.81755 0.61185,-2.54793 0.39137,-0.73041 0.93407,-1.32494 1.59633,-1.80058 0.66271,-0.45864 1.41024,-0.81536 2.22557,-1.03617 0.81537,-0.22091 1.66462,-0.32267 2.56476,-0.32267 0.95145,0 1.88552,0.0679 2.78566,0.20397 0.90059,0.13568 1.71592,0.32266 2.463,0.59452 z"
   id="path5874" /><path
   style="fill:#002b69;stroke-width:4.34852"
   d="M -618.52353,454.18889"
   id="path6369" /><path
   style="fill:#002b69;stroke-width:4.34852"
   d="m -618.52353,454.18889 h 2.5478 v -3.95785 h 3.29531 v 3.95785 h 3.36357 v 2.497 h -3.36357 v 7.94962 c 0,0.5096 0.0435,0.93427 0.0696,1.25698 0.0435,0.3057 0.11741,0.56056 0.25657,0.73042 0.1348,0.17003 0.32179,0.28874 0.54356,0.33962 0.23917,0.0678 0.56052,0.10175 0.96798,0.10175 0.26961,0 0.54356,-0.0174 0.78143,-0.0348 0.23917,-0.0174 0.47573,-0.0509 0.71359,-0.0848 v 2.44604 c -0.32179,0.0348 -0.71359,0.0678 -1.1554,0.10175 -0.44138,0.0509 -0.88318,0.0678 -1.32499,0.0678 -0.90015,0 -1.6133,-0.10175 -2.13991,-0.28874 -0.54356,-0.18699 -0.96841,-0.47564 -1.25716,-0.84931 -0.30439,-0.37354 -0.49268,-0.83235 -0.59444,-1.35891 -0.10001,-0.52661 -0.1522,-1.13809 -0.1522,-1.81755 v -8.56114 h -2.54779 z"
   id="path5876" />
      
    </g></svg>
